<?xml version="1.0" encoding="UTF-8" standalone="no"?>
<svg
   width="512"
   height="512"
   viewBox="0 0 512 512"
   fill="none"
   version="1.1"
   id="svg6"
   sodipodi:docname="gemini-svg.svg"
   inkscape:export-filename="icon.png"
   inkscape:export-xdpi="37.5"
   inkscape:export-ydpi="37.5"
   inkscape:version="1.4.3 (0d15f75, 2025-12-25)"
   xmlns:inkscape="http://www.inkscape.org/namespaces/inkscape"
   xmlns:sodipodi="http://sodipodi.sourceforge.net/DTD/sodipodi-0.dtd"
   xmlns="http://www.w3.org/2000/svg"
   xmlns:svg="http://www.w3.org/2000/svg">
  <defs
     id="defs6" />
  <sodipodi:namedview
     id="namedview6"
     pagecolor="#ffffff"
     bordercolor="#000000"
     borderopacity="0.25"
     inkscape:showpageshadow="2"
     inkscape:pageopacity="0.0"
     inkscape:pagecheckerboard="0"
     inkscape:deskcolor="#d1d1d1"
     inkscape:zoom="1.2617188"
     inkscape:cx="256"
     inkscape:cy="256"
     inkscape:window-width="1440"
     inkscape:window-height="890"
     inkscape:window-x="343"
     inkscape:window-y="1433"
     inkscape:window-maximized="1"
     inkscape:current-layer="svg6"
     inkscape:export-bgcolor="#ffffff00" />
  <!-- App Icon Background -->
  <rect
     width="512"
     height="512"
     rx="112"
     fill="#1C1C1E"
     id="rect1" />
  <rect
     x="16"
     y="16"
     width="480"
     height="480"
     rx="96"
     fill="#2C2C2E"
     stroke="#3A3A3C"
     stroke-width="8"
     id="rect2" />
  <!-- "MCP" Text across the top -->
  <text
     x="256"
     y="180"
     font-family="-apple-system, system-ui, BlinkMacSystemFont, 'Segoe UI', Roboto, 'Helvetica Neue', Arial, sans-serif"
     font-weight="800"
     font-size="180"
     fill="#A855F7"
     text-anchor="middle"
     letter-spacing="4"
     id="text2">
    MCP
  </text>
  <!-- AI Sparkles on the Right Side -->
  <!-- Primary Sparkle (Anthropic / LLM Purple) -->
  <path
     d="m 402,194 c 0,50 12,70 62,70 -50,0 -62,20 -62,70 0,-50 -12,-70 -62,-70 50,0 62,-20 62,-70 z"
     fill="#a855f7"
     id="path2" />
  <!-- Secondary Sparkle (Home Assistant Blue) -->
  <path
     d="m 348,334 c 0,30 8,40 45,40 -37,0 -45,10 -45,40 0,-30 -8,-40 -45,-40 37,0 45,-10 45,-40 z"
     fill="#038fc7"
     id="path3" />
  <!-- Small Accent Sparkle -->
  <path
     d="m 432,404 c 0,15 4,20 25,20 -21,0 -25,5 -25,20 0,-15 -4,-20 -25,-20 21,0 25,-5 25,-20 z"
     fill="#a855f7"
     opacity="0.6"
     id="path4" />
  <!-- 
    ========================================================
    PASTE THE OFFICIAL ESPHOME PATH BELOW THIS LINE.
    
    This group is positioned in the bottom-left, taking up roughly 
    2/3 of the icon space. The 'translate' moves it into position, 
    and the 'scale(0.65)' shrinks the official path to fit the zone.
    
    1. Go to https://media.esphome.io/logo/logo.svg
    2. View Page Source and copy the <path d="..." /> line.
    3. Paste it inside the <g> tags below.
    4. Optional: Change the fill="..." in your pasted path to 
       "#038FC7" if you want it to be Home Assistant Blue, or leave
       it alone to keep it the official ESPHome orange!
    ========================================================
  -->
  <g
     transform="matrix(0.9,0,0,0.9,-5,160)"
     id="g6">
    <!-- PASTE THE OFFICIAL <path> HERE -->
    <path
       d="m 320,299 c 0,8.25 -6.75,15 -15,15 H 95 c -8.25,0 -15,-6.75 -15,-15 v -90 c 0,-8.25 4.7812,-19.782 10.6125,-25.613 L 189.387,84.5934 c 5.832,-5.8312 15.376,-5.8312 21.207,0 l 98.793,98.7936 C 315.219,189.218 320,200.75 320,209 Z"
       fill="#18bcf2"
       id="path5" />
    <path
       d="m 239.994,158.656 h -80.007 c -3.318,0 -6,2.681 -6,6 V 314 h 12 V 170.656 h 68.007 v 12 h -50.007 c -3.318,0 -6,2.681 -6,6 v 24 c 0,3.319 2.682,6 6,6 h 50.007 v 12 h -50.007 c -3.318,0 -6,2.681 -6,6 v 24 c 0,3.319 2.682,6 6,6 h 50.007 v 12 h -50.007 c -3.318,0 -6,2.681 -6,6 0,3.319 2.682,6 6,6 h 56.007 c 3.318,0 6,-2.681 6,-6 v -24 c 0,-3.319 -2.682,-6 -6,-6 h -50.007 v -12 h 50.007 c 3.318,0 6,-2.681 6,-6 v -24 c 0,-3.319 -2.682,-6 -6,-6 h -50.007 v -12 h 50.007 c 3.318,0 6,-2.681 6,-6 v -24 c 0,-3.319 -2.682,-6 -6,-6 z"
       fill="#f2f4f9"
       id="path6" />
  </g>
</svg>
